<svg id="Layer_1" data-name="Layer 1" xmlns="http://www.w3.org/2000/svg" viewBox="0 0 228.28 162.89"><defs><style>.cls-1{fill:#1d1d1b;}</style></defs><path class="cls-1" d="M21.47,100.76q0,.12-2.06,4.45c-1.35,2.9-2.63,5.68-3.86,8.37H14.26q-2-4.52-3.87-8.53c-1.23-2.68-1.88-4.08-1.93-4.21l1.52-.76c0,.13.63,1.49,1.76,4.07s2.22,5,3.27,7.29h0q1.59-3.51,3.32-7.39l1.78-4Z"/><path class="cls-1" d="M32.38,113.36H24.07c0-.38,0-1.19,0-2.45s0-2.56,0-3.9c0-.73,0-1.71,0-2.92s0-2.46,0-3.76h8.18v1.36H31l-2.81,0H25.67c0,.74,0,1.47,0,2.2s0,1.43,0,2.08h2.11l3.07,0h1.44v1.35l-1.61,0h-5c0,1.23,0,2.2,0,2.93s0,1.33,0,1.81l1.4,0h5.32Z"/><path class="cls-1" d="M45.92,112.6l-1.23,1-1.52-1.7q-1.31-1.47-4-4.59v-.09a4.47,4.47,0,0,0,1-.42,5.3,5.3,0,0,0,1-.71,3.08,3.08,0,0,0,.63-.82,2.72,2.72,0,0,0,.27-1.31,2.2,2.2,0,0,0-.39-1.3,2.33,2.33,0,0,0-1.09-.79,4,4,0,0,0-1.19-.26c-.42,0-.8-.05-1.16-.05h-.81c0,1.24,0,2.33,0,3.28s0,1.61,0,2c0,.89,0,2.11,0,3.64s0,2.49,0,2.88H35.83c0-.39,0-1.15,0-2.27s0-2.52,0-4.19v-1.81c0-.88,0-2.48-.05-4.81h1c.58,0,1.12,0,1.62,0a14.93,14.93,0,0,1,1.65.09,6.22,6.22,0,0,1,1.56.42A3.61,3.61,0,0,1,43.17,102a3.18,3.18,0,0,1,.56,1.87,3.28,3.28,0,0,1-.85,2.31,7.78,7.78,0,0,1-1.61,1.37v0c.89,1,1.87,2.12,2.93,3.23Z"/><path class="cls-1" d="M59.77,106.85a7.6,7.6,0,0,1-.54,2.9,6.35,6.35,0,0,1-3.46,3.58,6.17,6.17,0,0,1-2.32.43,6.46,6.46,0,0,1-2.29-.41,5.85,5.85,0,0,1-1.93-1.24,6.64,6.64,0,0,1-1.53-2.24,8.32,8.32,0,0,1-.12-5.78A6.52,6.52,0,0,1,49,101.87a5.78,5.78,0,0,1,2-1.42,6.31,6.31,0,0,1,4.9,0,5.83,5.83,0,0,1,1.95,1.31,6.62,6.62,0,0,1,1.45,2.3A8.19,8.19,0,0,1,59.77,106.85Zm-1.66.15a7.41,7.41,0,0,0-.43-2.49,5.09,5.09,0,0,0-1.29-2.06,4.48,4.48,0,0,0-1.32-.88,4.26,4.26,0,0,0-4.64.94,5.38,5.38,0,0,0-1.21,1.94,7,7,0,0,0,0,4.92,5.12,5.12,0,0,0,1.25,1.88,4.33,4.33,0,0,0,1.32.87,4.28,4.28,0,0,0,1.64.32,4.14,4.14,0,0,0,1.62-.31,4.51,4.51,0,0,0,1.38-.92,5.31,5.31,0,0,0,1.2-1.79A6.11,6.11,0,0,0,58.11,107Z"/><path class="cls-1" d="M74.44,100.3q0,1.55,0,3.51c0,1.32,0,2.26,0,2.84,0,1.85,0,3.32,0,4.41s0,1.67,0,1.74l-1.3.64q-2.94-4-5.51-7.19c-1.71-2.14-2.7-3.37-3-3.71h0q0,2.63,0,6.43c0,2.54,0,4,0,4.4H63.19q0-.24,0-1.74c0-1,0-2.38,0-4.16,0-.71,0-1.65,0-2.82s0-2.43,0-3.74l1.49-.7q.16.23,3,3.79c1.88,2.38,3.65,4.6,5.31,6.64h0c0-1,0-2.69,0-5.06s0-4.13,0-5.28Z"/><path class="cls-1" d="M80.35,113.38H78.74c0-.39,0-1.09,0-2.09s0-2.44,0-4.32c0-.74,0-1.71,0-2.92s0-2.45,0-3.75h1.61c0,.94,0,2,0,3.25s0,2.24,0,3c0,2,0,3.51,0,4.6S80.35,113,80.35,113.38Z"/><path class="cls-1" d="M93.32,112.18c0,.06,0,.22-.06.49s-.05.57-.08.89h-.34a13.78,13.78,0,0,1-4.24-.6,7.84,7.84,0,0,1-3-1.75,5.77,5.77,0,0,1-1.31-1.89,6.29,6.29,0,0,1-.48-2.52,5.5,5.5,0,0,1,.48-2.32,6,6,0,0,1,1.25-1.83,7.65,7.65,0,0,1,3-1.8,12.3,12.3,0,0,1,4.06-.66H93c0,.11,0,.3,0,.56s0,.53.07.83h-.33a12.53,12.53,0,0,0-2.53.27,7.6,7.6,0,0,0-2.26.81,5.23,5.23,0,0,0-1.9,1.8,4.51,4.51,0,0,0-.66,2.37,5,5,0,0,0,.59,2.4A4.86,4.86,0,0,0,87.9,111a8.3,8.3,0,0,0,2.36.88,12.83,12.83,0,0,0,2.6.27h.46Z"/><path class="cls-1" d="M108.05,112.86l-1.52.78c0-.07-.23-.55-.62-1.45s-.91-2-1.55-3.47H98.58c-.69,1.52-1.22,2.69-1.59,3.53l-.62,1.39-1.3-.7q.24-.51,2.09-4.48c1.23-2.64,2.5-5.43,3.82-8.34h1.27q1.95,4.36,3.84,8.47Zm-4.24-5.39L102.72,105l-1.21-2.72h0c-.33.72-.72,1.6-1.18,2.64l-1.15,2.56h4.67Z"/><path class="cls-1" d="M124.51,112.18c0,.06,0,.22-.06.49s0,.57-.08.89H124a13.78,13.78,0,0,1-4.24-.6,7.84,7.84,0,0,1-3.05-1.75,5.77,5.77,0,0,1-1.31-1.89,6.29,6.29,0,0,1-.48-2.52,5.5,5.5,0,0,1,.48-2.32,6.19,6.19,0,0,1,1.25-1.83,7.65,7.65,0,0,1,3-1.8,12.3,12.3,0,0,1,4.06-.66h.44c0,.11,0,.3,0,.56s0,.53.07.83H124a12.53,12.53,0,0,0-2.53.27,7.6,7.6,0,0,0-2.26.81,5.23,5.23,0,0,0-1.9,1.8,4.51,4.51,0,0,0-.66,2.37,5,5,0,0,0,.59,2.4,4.86,4.86,0,0,0,1.89,1.81,8.3,8.3,0,0,0,2.36.88,12.83,12.83,0,0,0,2.6.27h.46Z"/><path class="cls-1" d="M138.53,106.85a7.6,7.6,0,0,1-.54,2.9,6.35,6.35,0,0,1-3.46,3.58,6.17,6.17,0,0,1-2.32.43,6.46,6.46,0,0,1-2.29-.41,5.85,5.85,0,0,1-1.93-1.24,6.64,6.64,0,0,1-1.53-2.24,7.77,7.77,0,0,1-.58-3,8,8,0,0,1,.46-2.74,6.68,6.68,0,0,1,1.38-2.22,5.78,5.78,0,0,1,2-1.42,6.1,6.1,0,0,1,2.47-.51,6.18,6.18,0,0,1,2.44.48,5.88,5.88,0,0,1,1.94,1.31A6.47,6.47,0,0,1,138,104,8,8,0,0,1,138.53,106.85Zm-1.66.15a7.41,7.41,0,0,0-.43-2.49,5.09,5.09,0,0,0-1.29-2.06,4.48,4.48,0,0,0-1.32-.88,4.22,4.22,0,0,0-4.63.94,5.27,5.27,0,0,0-1.22,1.94,7,7,0,0,0,0,4.92,5.12,5.12,0,0,0,1.25,1.88,4.59,4.59,0,0,0,1.32.87,4.28,4.28,0,0,0,1.64.32,4.14,4.14,0,0,0,1.62-.31,4.51,4.51,0,0,0,1.38-.92,5.31,5.31,0,0,0,1.2-1.79A6.11,6.11,0,0,0,136.87,107Z"/><path class="cls-1" d="M151.22,109.53a3.23,3.23,0,0,1-.5,1.76,3.75,3.75,0,0,1-1.46,1.28,6.93,6.93,0,0,1-1.86.64,12.38,12.38,0,0,1-2.32.2l-2,0-1.14,0c0-1.25,0-2.43,0-3.54s0-2.17,0-3.18c0-1.91,0-3.43,0-4.54s0-1.7,0-1.75l1.08,0c.63,0,1.24,0,1.83,0a11.76,11.76,0,0,1,1.85.13,7.18,7.18,0,0,1,1.44.36,3.26,3.26,0,0,1,1.39,1,2.52,2.52,0,0,1,.51,1.61,2.69,2.69,0,0,1-.64,1.78A3.25,3.25,0,0,1,148,106.2v.1a4.5,4.5,0,0,1,1.3.32,3.27,3.27,0,0,1,1.12.74,3.14,3.14,0,0,1,.63.92A3.3,3.3,0,0,1,151.22,109.53Zm-1.66,0a2.28,2.28,0,0,0-.17-.89,2.68,2.68,0,0,0-.53-.76,2.5,2.5,0,0,0-.91-.54,4,4,0,0,0-1.27-.2h-1.33L145.2,106a5.83,5.83,0,0,0,1.27-.17,3.06,3.06,0,0,0,1-.46,2.3,2.3,0,0,0,.68-.74,2.1,2.1,0,0,0,.26-1,1.86,1.86,0,0,0-.29-1,2.05,2.05,0,0,0-.8-.68,4,4,0,0,0-1.05-.31,8.19,8.19,0,0,0-1.34-.1h-1.33c0,1,0,2,0,3v2.33c0,1.12,0,2.24,0,3.37s0,1.73,0,1.81l.52,0h.63a16.89,16.89,0,0,0,2.08-.12,4.35,4.35,0,0,0,1.62-.48,2.23,2.23,0,0,0,.84-.8A2.11,2.11,0,0,0,149.56,109.58Z"/><path class="cls-1" d="M156.16,113.38h-1.61c0-.39,0-1.09,0-2.09s0-2.44,0-4.32c0-.74,0-1.71,0-2.92s0-2.45,0-3.75h1.61c0,.94,0,2,0,3.25s0,2.24,0,3c0,2,0,3.51,0,4.6S156.16,113,156.16,113.38Z"/><path class="cls-1" d="M171.76,112.86l-1.52.78-.63-1.45c-.39-.9-.9-2-1.54-3.47h-5.78c-.69,1.52-1.22,2.69-1.59,3.53l-.62,1.39-1.31-.7q.25-.51,2.1-4.48c1.22-2.64,2.5-5.43,3.82-8.34H166q1.95,4.36,3.84,8.47C171.05,111.33,171.71,112.75,171.76,112.86Zm-4.24-5.39c-.35-.79-.71-1.62-1.1-2.49l-1.2-2.72h0c-.33.72-.72,1.6-1.19,2.64s-.84,1.9-1.14,2.56h4.67Z"/><path class="cls-1" d="M185.58,100.3c0,1,0,2.2,0,3.51s0,2.26,0,2.84c0,1.85,0,3.32,0,4.41s0,1.67,0,1.74l-1.3.64q-3-4-5.51-7.19l-3-3.71h0c0,1.75,0,3.89,0,6.43s0,4,0,4.4h-1.52q0-.24,0-1.74c0-1,0-2.38,0-4.16,0-.71,0-1.65,0-2.82s0-2.43,0-3.74l1.48-.7,3,3.79c1.87,2.38,3.64,4.6,5.3,6.64h0c0-1,0-2.69,0-5.06s0-4.13,0-5.28Z"/><path class="cls-1" d="M198.53,112.18c0,.06,0,.22-.05.49s-.06.57-.08.89h-.35a13.72,13.72,0,0,1-4.23-.6,7.77,7.77,0,0,1-3-1.75,5.77,5.77,0,0,1-1.31-1.89,6.13,6.13,0,0,1-.49-2.52,5.5,5.5,0,0,1,.48-2.32,6.38,6.38,0,0,1,1.25-1.83,7.76,7.76,0,0,1,3-1.8,12.2,12.2,0,0,1,4.05-.66h.44c0,.11,0,.3,0,.56s0,.53.07.83H198a12.62,12.62,0,0,0-2.54.27,7.8,7.8,0,0,0-2.26.81,5.12,5.12,0,0,0-1.89,1.8,4.43,4.43,0,0,0-.67,2.37,4.59,4.59,0,0,0,2.49,4.21,8.3,8.3,0,0,0,2.36.88,12.73,12.73,0,0,0,2.59.27h.46Z"/><path class="cls-1" d="M212.4,113.38h-1.61c0-.39,0-1.11,0-2.16s0-2.36,0-3.93h-7.92c0,1.81,0,3.18,0,4.11s0,1.59,0,2h-1.61c0-.39,0-1.08,0-2.08s0-2.68,0-5c0-.71,0-1.59,0-2.62s0-2.13,0-3.33H203c0,1,0,2,0,2.92s0,1.86,0,2.72h7.92c0-.86,0-1.76,0-2.72s0-1.92,0-2.92h1.61c0,1,0,2.12,0,3.41s0,2.34,0,3.16c0,1.91,0,3.38,0,4.4S212.39,113,212.4,113.38Z"/><path class="cls-1" d="M218.32,113.38h-1.61c0-.39,0-1.09,0-2.09s0-2.44,0-4.32c0-.74,0-1.71,0-2.92s0-2.45,0-3.75h1.61c0,.94,0,2,0,3.25s0,2.24,0,3c0,2,0,3.51,0,4.6S218.31,113,218.32,113.38Z"/><path class="cls-1" d="M79.67,136.3l-.64.28c-.21-.43-.46-1-.77-1.72s-.75-1.7-1.31-2.93H71.21c-.52,1.16-1,2.16-1.33,3l-.73,1.63-.6-.27,2.19-4.82c1.27-2.79,2.32-5.1,3.14-7h.51q.85,2,2.85,6.38C78.56,133.85,79.38,135.65,79.67,136.3Zm-3-4.93c-.37-.85-.8-1.84-1.3-3s-.93-2.09-1.31-2.92h0c-.42.93-.87,2-1.36,3.06l-1.25,2.81H76.7Z"/><path class="cls-1" d="M94.73,136.16l-.52.42q-.21-.24-1.35-1.68T89.8,131v-.08a4.58,4.58,0,0,0,.94-.4,3.88,3.88,0,0,0,.9-.68,2.6,2.6,0,0,0,.73-1.91,2.56,2.56,0,0,0-.39-1.42,2.68,2.68,0,0,0-1-.93,3.64,3.64,0,0,0-1.14-.34,8.53,8.53,0,0,0-1.36-.1l-.78,0h-.52c0,1.09,0,2.17,0,3.24v2.12c0,.81,0,1.9,0,3.28s0,2.24,0,2.59h-.71c0-.35,0-1,0-2s0-2.28,0-3.78c0-.29,0-.83,0-1.62s0-2.22,0-4.33l.82,0h1.35a8.69,8.69,0,0,1,1.43.11,4.62,4.62,0,0,1,1.27.36,3,3,0,0,1,1.27,1.1,2.91,2.91,0,0,1,.5,1.65,3.09,3.09,0,0,1-.7,2.11,4.38,4.38,0,0,1-1.67,1.19v.05c.72.94,1.54,2,2.48,3.14S94.63,136.07,94.73,136.16Z"/><path class="cls-1" d="M108.85,125.23h-4.36c0,1.2,0,2.22,0,3s0,1.78,0,2.86,0,2.07,0,3.14,0,1.77,0,2.12h-.7v-2.15c0-1.09,0-2.15,0-3.18s0-1.94,0-2.75v-3.08H99.44v-.59h9.41Z"/><path class="cls-1" d="M116.38,136.38h-.71c0-.35,0-1,0-1.88s0-2.2,0-3.88c0-.67,0-1.55,0-2.63s0-2.21,0-3.38h.71c0,.84,0,1.81,0,2.92s0,2,0,2.72c0,1.79,0,3.16,0,4.14S116.38,136,116.38,136.38Z"/><path class="cls-1" d="M130.11,133.33a2.62,2.62,0,0,1-.41,1.5,3.45,3.45,0,0,1-1.11,1,4.68,4.68,0,0,1-1.48.55,8.25,8.25,0,0,1-1.65.17l-1.07,0-.67,0,0-.62.62.06c.32,0,.72,0,1.2,0a7.49,7.49,0,0,0,1.47-.14,4,4,0,0,0,1.2-.44,2.68,2.68,0,0,0,.94-.84,2.19,2.19,0,0,0,.31-1.2,2.24,2.24,0,0,0-.37-1.2,3.43,3.43,0,0,0-1.47-1.17,6.67,6.67,0,0,0-.73-.34c-.32-.12-.56-.23-.73-.31a4.74,4.74,0,0,1-1.64-1.17,2.34,2.34,0,0,1-.54-1.57,2.52,2.52,0,0,1,.33-1.31,3.27,3.27,0,0,1,.88-.94,4.37,4.37,0,0,1,1.34-.62,6.1,6.1,0,0,1,1.59-.22l1,0,.59,0,.05.62-.63-.06c-.31,0-.67,0-1.05,0a5.4,5.4,0,0,0-1.3.17,3.79,3.79,0,0,0-1.21.55,2.6,2.6,0,0,0-.65.7,2,2,0,0,0-.29,1.08,1.91,1.91,0,0,0,.36,1.14,3.57,3.57,0,0,0,1.4,1l.69.31c.29.11.54.23.78.34a4.46,4.46,0,0,1,1.69,1.31A2.7,2.7,0,0,1,130.11,133.33Z"/><path class="cls-1" d="M145.66,125.23H141.3c0,1.2,0,2.22,0,3s0,1.78,0,2.86,0,2.07,0,3.14,0,1.77,0,2.12h-.71c0-.35,0-1.07,0-2.15s0-2.15,0-3.18,0-1.94,0-2.75,0-1.83,0-3.08h-4.35v-.59h9.42Z"/><path class="cls-1" d="M160.41,136.3l-.64.28c-.2-.43-.46-1-.77-1.72s-.75-1.7-1.3-2.93H152c-.51,1.16-1,2.16-1.33,3l-.72,1.63-.61-.27q.3-.63,2.2-4.82c1.27-2.79,2.31-5.1,3.14-7h.51c.57,1.3,1.51,3.43,2.84,6.38Zm-3-4.93c-.38-.85-.81-1.84-1.31-3s-.93-2.09-1.31-2.92h0l-1.36,3.06-1.25,2.81h5.25Z"/><path d="M118,84.59a7.48,7.48,0,0,1-6.74-3.48c-2.62-4.36-2-13.28-1-20a104.3,104.3,0,0,1,3.61-15.89,15.36,15.36,0,0,1-3.51.43,9.53,9.53,0,0,1-3.26-.52.52.52,0,0,1-.34-.46,3.73,3.73,0,0,1,1.21-2.3.46.46,0,0,1,.26-.05l.61,0c.43,0,1,.07,1.65.07a10.41,10.41,0,0,0,1.87-.15,6.42,6.42,0,0,0,2.88-1.39,56.56,56.56,0,0,1,4.22-9.74c1.72-3.2,4.35-7.45,7.1-9.51a4.45,4.45,0,0,1,2.67-.8,4.92,4.92,0,0,1,5,4.05c.57,3.12-2.23,9.14-3.85,11-4,4.57-10.52,7.44-13,8.54a60.29,60.29,0,0,0-3.48,12.76,82.44,82.44,0,0,0-1.47,15.3c.07,3.27,1,7.48,3.38,8.58l.25.13a5.24,5.24,0,0,0,2.54.67c2.34,0,5.17-1.49,8.43-4.42C132,73,135.21,65.31,137.15,60.71a31.09,31.09,0,0,1,1.4-3.09c.22-.39,0-.81-.3-1.25a3.57,3.57,0,0,1-.26-.46,17.28,17.28,0,0,1-1.11-4.38,13.77,13.77,0,0,1,.21-6c.48-1.33,2.27-1.95,3.33-1.95h.14a1.75,1.75,0,0,1,1.28.75c1,1.19,1.44,3.53,1.63,4.82a18,18,0,0,1,.18,4.8.43.43,0,0,0,.13.32,2.35,2.35,0,0,0,1.6.48,3.76,3.76,0,0,0,1.35-.24A5.25,5.25,0,0,0,149.08,52c.14-.31.3-.69.49-1.13.91-2.15,2.3-5.4,4-7.26a7.39,7.39,0,0,1,3.49-2,5.07,5.07,0,0,1,.8-.07,7,7,0,0,1,3.26.9c1.57.94,2.68,1.81,2.7,2.12a.2.2,0,0,1-.07.16l-.05,0h-.06c-.06,0-.09,0-.29-.12a10.64,10.64,0,0,0-4.56-1.32,4.88,4.88,0,0,0-1.51.23c-1.18.38-3,2.72-4.18,5.32a36.56,36.56,0,0,0-1.53,4.35,8.7,8.7,0,0,1-1,2.62,3.78,3.78,0,0,1-3,1.3,7.16,7.16,0,0,1-1.15-.1l-.18,0h0a9.72,9.72,0,0,0-1-.06,3.94,3.94,0,0,0-2.33.6c-.31.22-2.25,3.56-3.54,5.77-.59,1-1.14,2-1.54,2.63-1.46,3-3.22,6.22-5.09,9.3a20.74,20.74,0,0,1-6.82,6.9A15.48,15.48,0,0,1,118,84.59ZM139.72,46.7c-.57,0-.85.69-.78,1.78v.07a15.39,15.39,0,0,0,.52,3.67c.37,1.05.92,1.43,1.2,1.43a.12.12,0,0,0,.09,0,8.07,8.07,0,0,0,.43-4.3c-.24-1.51-1.15-2.62-1.45-2.62ZM129.73,24c-1,0-3,1.29-5.22,4.17-3.16,4.18-5.86,9.82-5.56,11.61a.65.65,0,0,0,.24.45.42.42,0,0,0,.18,0c.7,0,2.38-.89,4.18-2.23a24.48,24.48,0,0,0,5.23-5.18c2.18-3.08,2.7-6.3,2.09-7.89A1.38,1.38,0,0,0,130,24,.78.78,0,0,0,129.73,24Z"/><path class="cls-1" d="M129.28,21a4.75,4.75,0,0,1,4.85,3.91c.56,3-2.21,9-3.81,10.83-4,4.53-10.54,7.43-13,8.52-2.55,5.54-5.17,19.35-5,28.19,0,2.49.72,7.47,3.48,8.74a5.83,5.83,0,0,0,2.86.81c1.84,0,4.58-.89,8.54-4.47,6.47-5.82,10.14-17.5,11.52-19.83.36-.65-.3-1.3-.56-1.88-.59-1.06-2-7.07-.89-10.24.45-1.23,2.13-1.83,3.17-1.83h.13c2.5.12,3.3,7.79,2.93,10.18,0,.58.85,1,1.9,1a3.86,3.86,0,0,0,1.41-.26,5.31,5.31,0,0,0,2.44-2.57c.81-1.78,2.42-6.12,4.49-8.34a7.25,7.25,0,0,1,3.39-2,3.94,3.94,0,0,1,.77-.07,7,7,0,0,1,3.17.87c2.08,1.25,2.68,2,2.61,2h0a11.61,11.61,0,0,0-4.85-1.44,5,5,0,0,0-1.57.24c-1.29.42-3.16,2.92-4.27,5.41-1.36,3-1.88,6.18-2.53,6.93a3.67,3.67,0,0,1-2.9,1.24,10.07,10.07,0,0,1-1.32-.13,9.51,9.51,0,0,0-1.05-.06,4.15,4.15,0,0,0-2.43.63c-.48.34-3.75,6.17-5.13,8.46-1.55,3.18-3.36,6.44-5.09,9.29-3.57,5.9-9.62,9.26-14.52,9.26a7.3,7.3,0,0,1-6.59-3.4c-4.89-8.13,1.48-32.85,2.79-36a16,16,0,0,1-3.79.5,9.37,9.37,0,0,1-3.2-.51c-.73-.26.51-2.23.9-2.46,0,0,.08,0,.17,0,.36,0,1.24.1,2.26.1a10.28,10.28,0,0,0,1.9-.15,6.09,6.09,0,0,0,3-1.5c1.15-4,6.32-15.48,11.27-19.17a4.31,4.31,0,0,1,2.56-.77m-9.91,19.41c1.47,0,6.77-3.55,9.55-7.48,2.91-4.11,3-8.66,1.07-9.09a1.09,1.09,0,0,0-.26,0c-1.19,0-3.3,1.53-5.35,4.24-3.43,4.52-6.69,11.36-5.28,12.3a.49.49,0,0,0,.27.06m21.29,13.4a.27.27,0,0,0,.2-.07c.33-.3.8-2.56.49-4.46-.24-1.51-1.17-2.76-1.62-2.76h0c-.46,0-1,.45-.93,2a17.62,17.62,0,0,0,.53,3.79c.4,1.12,1,1.54,1.36,1.54M129.28,20.67a4.64,4.64,0,0,0-2.77.83c-1.53,1.15-4,3.74-7.15,9.57a57.15,57.15,0,0,0-4.22,9.73,6.5,6.5,0,0,1-2.76,1.31,10.07,10.07,0,0,1-1.84.15c-.63,0-1.21,0-1.64-.07l-.62,0a.65.65,0,0,0-.36.07,3.47,3.47,0,0,0-.81,1,2.8,2.8,0,0,0-.47,1.44.68.68,0,0,0,.45.61,9.63,9.63,0,0,0,3.32.54,15.88,15.88,0,0,0,3.25-.37,107.73,107.73,0,0,0-3.52,15.63,67.7,67.7,0,0,0-.88,11.31c.07,3.91.7,6.86,1.86,8.79A7.64,7.64,0,0,0,118,84.76a15.61,15.61,0,0,0,7.94-2.47,20.76,20.76,0,0,0,6.87-7c1.87-3.08,3.64-6.3,5.1-9.31.4-.66,1-1.61,1.54-2.62,1.25-2.16,3.15-5.42,3.49-5.73a3.87,3.87,0,0,1,2.23-.56,9.37,9.37,0,0,1,1,.06h0l.16,0a7.23,7.23,0,0,0,1.17.1A4,4,0,0,0,150.7,56a9.13,9.13,0,0,0,1.05-2.69,36.36,36.36,0,0,1,1.53-4.33c1.12-2.52,2.95-4.86,4.07-5.23a4.81,4.81,0,0,1,1.46-.22,10.54,10.54,0,0,1,4.48,1.3c.22.12.27.14.37.14h.12l.09-.07a.38.38,0,0,0,.14-.31c0-.1,0-.28-.7-.84a17.46,17.46,0,0,0-2.08-1.42,7.22,7.22,0,0,0-3.35-.92,5.46,5.46,0,0,0-.83.07,7.58,7.58,0,0,0-3.58,2.1c-1.75,1.88-3.14,5.14-4.06,7.3-.19.44-.35.82-.49,1.13a5.05,5.05,0,0,1-2.26,2.4,3.59,3.59,0,0,1-1.28.23,2.1,2.1,0,0,1-1.47-.43.25.25,0,0,1-.09-.19,18.35,18.35,0,0,0-.18-4.84c-.19-1.3-.67-3.68-1.67-4.9a1.89,1.89,0,0,0-1.4-.81h-.15c-1.14,0-3,.64-3.49,2.06a14,14,0,0,0-.22,6.07A17.6,17.6,0,0,0,137.83,56a5.46,5.46,0,0,0,.27.48c.29.48.46.79.3,1.08-.34.58-.81,1.7-1.41,3.11A91.75,91.75,0,0,1,133.07,69,31.05,31.05,0,0,1,127,77.29c-3.22,2.91-6,4.38-8.31,4.38a5,5,0,0,1-2.46-.65l-.26-.13c-1.12-.52-2-1.76-2.57-3.7a19,19,0,0,1-.71-4.73,82.15,82.15,0,0,1,1.47-15.27,60.76,60.76,0,0,1,3.44-12.66,55,55,0,0,0,5.86-2.94A29,29,0,0,0,130.58,36c1.64-1.84,4.47-7.95,3.89-11.11a5.08,5.08,0,0,0-5.19-4.19Zm-10,19.4a.47.47,0,0,1-.16-.33c-.14-.84.41-2.62,1.51-4.9a41.23,41.23,0,0,1,4-6.57c2.13-2.82,4.13-4.11,5.08-4.11l.18,0a1.19,1.19,0,0,1,.8.83,6,6,0,0,1,0,3.29,13,13,0,0,1-2.06,4.44,24.34,24.34,0,0,1-5.19,5.14c-2,1.51-3.54,2.2-4.08,2.2Zm21.36,13.41c-.19,0-.67-.34-1-1.32a14.78,14.78,0,0,1-.52-3.62v-.07c0-.57,0-1.53.61-1.6a3.82,3.82,0,0,1,1.3,2.48,8.57,8.57,0,0,1-.38,4.13Z"/><path d="M97.06,75.48c0,.1.16.17.29.3,2.33-16.43,14.22-62.07,17.34-61.36,1.58.35,3.44.91,2.43,3.07-8.25,18.31-12,38.08-15.6,57.75-1.13,3.92-2.2,18.32-7.3,8.39C90,70,85.75,51.58,82.9,37.13a4.53,4.53,0,0,1,.25-4c1.4-1.59,3.84-1.61,4.65-.75C88.85,45.66,96.46,75.69,97.06,75.48Z"/></svg>