<svg id="Layer_1" data-name="Layer 1" xmlns="http://www.w3.org/2000/svg" viewBox="0 0 595.28 533.89"><defs><style>.cls-1{fill:#1d1d1b;}</style></defs><path d="M264.77,487.48c-19.36,0-34.82-8-43.54-22.49-16.92-28.16-12.68-85.76-6.15-129.11,6.84-45.34,18.26-88.81,23.33-102.64A101,101,0,0,1,215.73,236a61.77,61.77,0,0,1-21.08-3.4,3.28,3.28,0,0,1-2.15-3c-.42-4.52,5.21-13.28,7.77-14.85a2.84,2.84,0,0,1,1.68-.33c.9,0,2.24.09,3.94.21,2.78.2,6.58.46,10.7.46a66.45,66.45,0,0,0,12-1c9.33-1.72,17.65-7.77,18.62-9,3.57-12.5,13.6-37.45,27.25-62.89,11.12-20.7,28.11-48.17,45.9-61.45,4.47-3.34,10.59-5.18,17.25-5.18,13.77,0,29.14,8.09,32.42,26.16,3.66,20.14-14.43,59.07-24.87,70.88-26.1,29.51-68,48-84.19,55.17-7.85,17.21-16.25,48-22.49,82.42-6.56,36.25-10,72.28-9.48,98.84.43,21.14,6.4,48.34,21.81,55.44.48.22,1,.49,1.62.81a33.74,33.74,0,0,0,16.43,4.35c15.08,0,33.39-9.61,54.44-28.58,31.58-28.46,52.57-78.19,65.11-107.89,3.84-9.12,6.88-16.32,9.05-20,1.41-2.54-.22-5.22-1.95-8a32.69,32.69,0,0,1-1.69-3c-2.06-3.77-5.29-15.35-7.14-28.3-1.63-11.38-2.71-27.34,1.37-38.69,3.09-8.57,14.67-12.56,21.53-12.56l.87,0c3,.15,5.79,1.78,8.27,4.84,6.27,7.7,9.31,22.83,10.56,31.16,1.75,11.64,2.21,24.08,1.14,31a2.75,2.75,0,0,0,.83,2.08c1.76,1.91,5.81,3.14,10.34,3.14a23.77,23.77,0,0,0,8.7-1.6c7.42-2.93,13-11.49,15.18-16.08.89-2,1.94-4.42,3.16-7.27,5.92-13.89,14.86-34.89,26-46.89,2.81-3,12.35-11.31,22.52-13.17a28.67,28.67,0,0,1,5.17-.45,45.57,45.57,0,0,1,21.07,5.77c10.12,6.07,17.28,11.71,17.41,13.72a1.19,1.19,0,0,1-.46,1l-.3.24h-.4c-.36,0-.56-.11-1.88-.78-4.12-2.11-16.64-8.51-29.43-8.51a31.58,31.58,0,0,0-9.78,1.46c-7.63,2.48-19.47,17.58-27,34.37-4.41,9.88-7.46,20-9.91,28.11-2.52,8.34-4.34,14.38-6.55,17-4.8,5.56-11.39,8.38-19.6,8.38a44.47,44.47,0,0,1-7.4-.68c-.52-.08-1-.16-1.18-.17h-.08a64.56,64.56,0,0,0-6.63-.37c-6.5,0-11.43,1.26-15.06,3.85-2,1.43-14.56,23-22.86,37.29-3.81,6.54-7.4,12.73-10,17-9.45,19.41-20.82,40.18-32.9,60.09a133.65,133.65,0,0,1-44.05,44.54C298.88,481.88,280.88,487.48,264.77,487.48Zm140.3-244.76c-3.67.35-5.46,4.44-5.05,11.5l0,.48c.65,11.23,1.78,19.2,3.37,23.69,2.39,6.76,5.91,9.22,7.69,9.22a.85.85,0,0,0,.59-.17c1.5-1.37,4.87-15.21,2.83-27.79-1.59-9.78-7.43-16.93-9.42-16.93ZM340.54,96c-6.63,0-19.62,8.33-33.71,27-20.42,27-37.87,63.38-35.91,75a4.09,4.09,0,0,0,1.53,2.9,2.17,2.17,0,0,0,1.13.23c4.56,0,15.43-5.8,27-14.42,13.56-10.08,25.87-22.27,33.78-33.46,14.07-19.88,17.44-40.69,13.5-51-.89-2.34-2.65-5.29-5.93-6A6.47,6.47,0,0,0,340.54,96Z"/><path class="cls-1" d="M337.65,76.77c13.4,0,28.17,7.81,31.33,25.25,3.56,19.59-14.32,58.31-24.61,69.94-25.88,29.27-68.11,48-84.19,55.07-16.5,35.79-33.4,125-32.24,182.12.32,16.09,4.64,48.22,22.45,56.42,3,1.39,8.8,5.27,18.51,5.27,11.86,0,29.55-5.77,55.18-28.87,41.75-37.63,65.45-113.07,74.37-128.13,2.33-4.22-1.91-8.42-3.6-12.14-3.78-6.83-13.07-45.67-5.72-66.12,2.87-8,13.75-11.82,20.49-11.82.28,0,.55,0,.82,0,16.17.81,21.32,50.35,18.92,65.74-.32,3.81,5.49,6.46,12.27,6.46a25,25,0,0,0,9.1-1.68c8.4-3.32,14.07-13,15.78-16.64,5.21-11.47,15.65-39.53,29-53.88,2.15-2.32,11.54-10.94,21.9-12.84a27.84,27.84,0,0,1,5-.43,44.56,44.56,0,0,1,20.5,5.62c13.42,8.05,17.32,12.57,16.84,13h0c-.58,0-15.71-9.29-31.31-9.29a32.44,32.44,0,0,0-10.12,1.52c-8.36,2.72-20.46,18.89-27.64,35-8.77,19.66-12.12,39.94-16.29,44.79-5.66,6.57-13.06,8-18.76,8a61.49,61.49,0,0,1-8.55-.85,67.3,67.3,0,0,0-6.74-.37c-5.92,0-11.44,1-15.7,4-3.1,2.21-24.24,39.83-33.15,54.65-10,20.56-21.69,41.62-32.87,60-23.1,38.08-62.13,59.79-93.8,59.79-18,0-33.6-7-42.59-22-31.58-52.54,9.55-212.21,18-232.75a102,102,0,0,1-24.47,3.26A60.93,60.93,0,0,1,195,231.6c-4.68-1.7,3.29-14.38,5.85-15.88a2.2,2.2,0,0,1,1.07-.15c2.32,0,8,.68,14.64.68a68.4,68.4,0,0,0,12.24-1c10.19-1.88,19.23-8.75,19.45-9.66,7.41-26.08,40.86-100,72.78-123.88,4.34-3.24,10.32-5,16.59-5M273.58,202.18c9.54,0,43.76-22.94,61.73-48.35,18.79-26.58,19-56,6.9-58.72a7.44,7.44,0,0,0-1.67-.18c-7.71,0-21.35,9.9-34.6,27.38-22.13,29.23-43.21,73.38-34.11,79.45a3.19,3.19,0,0,0,1.75.42m137.53,86.53a2,2,0,0,0,1.34-.45c2.1-1.93,5.16-16.56,3.17-28.79-1.59-9.75-7.57-17.85-10.51-17.85H405c-3,.29-6.62,2.88-6.05,12.67.2,3.36.91,17.25,3.46,24.47s6.44,9.95,8.73,9.95M337.65,74.56c-6.89,0-13.25,1.91-17.91,5.39-9.91,7.4-26,24.13-46.21,61.82-13.6,25.33-23.62,50.21-27.27,62.85a41.77,41.77,0,0,1-17.83,8.47,65.1,65.1,0,0,1-11.84.95c-4.08,0-7.86-.27-10.62-.46-1.72-.12-3.08-.21-4-.21a4,4,0,0,0-2.29.5c-1.69,1.07-3.88,4.19-5.25,6.57-1.52,2.64-3.28,6.39-3,9.31a4.39,4.39,0,0,0,2.87,3.92,63,63,0,0,0,21.46,3.47,100.48,100.48,0,0,0,21-2.39c-5.37,15.66-16.17,57.48-22.72,101-4.2,27.89-6.13,52.48-5.71,73.11.5,25.22,4.54,44.31,12,56.74,8.92,14.85,24.72,23,44.48,23,16.31,0,34.52-5.66,51.27-15.94a134.74,134.74,0,0,0,44.42-44.91c12.08-19.92,23.46-40.71,32.92-60.13,2.56-4.27,6.15-10.44,9.95-17,8.1-13.94,20.34-35,22.57-37,3.44-2.44,8.14-3.62,14.39-3.62,2,0,4.12.12,6.52.36H447c.14,0,.62.08,1.05.15a45.78,45.78,0,0,0,7.57.7c8.55,0,15.42-2.95,20.43-8.77,2.37-2.75,4.22-8.88,6.78-17.36,2.44-8.08,5.48-18.15,9.86-28,7.26-16.26,19.06-31.41,26.3-33.77a30.29,30.29,0,0,1,9.44-1.41c12.53,0,24.87,6.32,28.93,8.39,1.45.75,1.76.9,2.38.9h.76l.62-.47a2.33,2.33,0,0,0,.88-2c0-.64-.12-1.83-4.52-5.45A114.12,114.12,0,0,0,544,214.23a46.87,46.87,0,0,0-21.64-5.93,30.06,30.06,0,0,0-5.37.47c-12.61,2.31-23,13.39-23.13,13.5-11.29,12.15-20.28,33.25-26.23,47.22-1.21,2.83-2.25,5.28-3.14,7.25-2.09,4.44-7.5,12.7-14.59,15.51a22.83,22.83,0,0,1-8.29,1.52c-4.81,0-8.25-1.4-9.52-2.78a1.65,1.65,0,0,1-.55-1.22c1.07-7,.61-19.56-1.15-31.27-1.26-8.44-4.35-23.78-10.79-31.69-2.69-3.31-5.75-5.07-9.07-5.24l-.93,0c-7.38,0-19.27,4.12-22.56,13.28-4.17,11.57-3.08,27.72-1.43,39.23,1.86,13,5.13,24.74,7.24,28.63a31.71,31.71,0,0,0,1.74,3.1c1.87,3.08,2.94,5.08,1.92,6.95-2.21,3.75-5.25,11-9.1,20.08-6.13,14.52-14.52,34.4-25.3,54.15-12.65,23.17-25.95,41.12-39.53,53.36-20.84,18.78-38.9,28.3-53.7,28.3A32.21,32.21,0,0,1,253,464.39c-.63-.31-1.16-.59-1.67-.82-7.22-3.33-12.8-11.37-16.59-23.89a120.42,120.42,0,0,1-4.57-30.57c-.54-26.5,2.91-62.44,9.46-98.62,6.18-34.12,14.46-64.57,22.23-81.78a369.8,369.8,0,0,0,37.87-19c19.49-11.38,35.07-23.59,46.32-36.3,10.56-11.94,28.84-51.37,25.13-71.81-3.4-18.69-19.28-27.06-33.51-27.06ZM273,199.9a3.14,3.14,0,0,1-1-2.14c-.92-5.42,2.63-16.95,9.74-31.63a264.81,264.81,0,0,1,26-42.49c13.79-18.21,26.68-26.5,32.83-26.5a5.35,5.35,0,0,1,1.18.12c2.26.52,4,2.32,5.15,5.35,1.94,5.06,1.9,12.81-.09,21.28a83.62,83.62,0,0,1-13.28,28.66c-7.85,11.1-20.07,23.2-33.53,33.21C286.83,195.52,277.08,200,273.58,200a1.43,1.43,0,0,1-.54-.07Zm138,86.6c-1.25-.08-4.36-2.2-6.58-8.48-1.55-4.39-2.67-12.26-3.31-23.38l0-.48c-.22-3.67,0-9.86,4-10.33,1.51.42,6.84,6.72,8.35,16,1.85,11.41-1,24.45-2.4,26.67Z"/><path d="M129.47,428.65c.24.66,1.07,1.11,1.91,2,15-106.19,91.87-401,112-396.42C253.57,36.49,265.58,40,259.1,54c-53.29,118.28-77.42,246-100.8,373.06-7.28,25.32-14.21,118.36-47.13,54.23-27.4-88.38-54.73-207-73.15-300.38-2.34-8.66-4-15,1.58-25.52,9.06-10.31,24.86-10.38,30.09-4.85C76.44,236,125.63,430,129.47,428.65Z"/></svg>